<svg xmlns="http://www.w3.org/2000/svg" width="900" height="650" viewBox="0 0 900 650">
  <defs>
    <linearGradient id="g" x1="0" y1="0" x2="1" y2="1"><stop stop-color="#7c3aed"/><stop offset="1" stop-color="#164e63"/></linearGradient>
    <radialGradient id="r" cx="35%" cy="25%" r="70%"><stop stop-color="#ffffff" stop-opacity=".55"/><stop offset="1" stop-color="#ffffff" stop-opacity="0"/></radialGradient>
    <filter id="shadow" x="-20%" y="-20%" width="140%" height="140%"><feDropShadow dx="0" dy="25" stdDeviation="30" flood-opacity=".22"/></filter>
  </defs>
  <rect width="900" height="650" rx="48" fill="#f6fbf7"/>
  <path d="M0 430 C180 340 290 520 460 408 C610 310 722 342 900 262 L900 650 L0 650 Z" fill="url(#g)" opacity=".18"/>
  <circle cx="710" cy="130" r="140" fill="url(#r)"/>
  <g filter="url(#shadow)">
    <rect x="255" y="150" width="390" height="270" rx="38" fill="url(#g)"/>
    <rect x="300" y="198" width="300" height="68" rx="20" fill="#ffffff" opacity=".9"/>
    <circle cx="345" cy="333" r="34" fill="#ffffff" opacity=".92"/>
    <circle cx="450" cy="333" r="34" fill="#ffffff" opacity=".72"/>
    <circle cx="555" cy="333" r="34" fill="#ffffff" opacity=".55"/>
    <path d="M320 488 C410 435 504 548 596 488" stroke="url(#g)" stroke-width="24" stroke-linecap="round" fill="none"/>
  </g>
  <path d="M126 210 C170 176 209 179 246 216" stroke="#14532d" stroke-width="10" stroke-linecap="round" opacity=".18"/>
  <path d="M654 480 C701 428 754 426 808 470" stroke="#14532d" stroke-width="10" stroke-linecap="round" opacity=".18"/>
  <text x="450" y="575" text-anchor="middle" font-family="Arial" font-size="42" font-weight="700" fill="#12372f">بوابة اتصال ميدانية</text>
</svg>